<?xml version="1.0" encoding="utf-8"?>
<!-- Generator: Adobe Illustrator 22.1.0, SVG Export Plug-In . SVG Version: 6.00 Build 0)  -->
<svg version="1.1" id="Layer_1" xmlns="http://www.w3.org/2000/svg" xmlns:xlink="http://www.w3.org/1999/xlink" x="0px" y="0px"
	 viewBox="0 0 1025 1024" style="enable-background:new 0 0 1025 1024;" xml:space="preserve">
<style type="text/css">
	.st0{fill-rule:evenodd;clip-rule:evenodd;fill:url(#SVGID_1_);}
	.st1{fill-rule:evenodd;clip-rule:evenodd;fill:url(#SVGID_2_);}
	.st2{fill-rule:evenodd;clip-rule:evenodd;fill:url(#SVGID_3_);}
	.st3{fill-rule:evenodd;clip-rule:evenodd;fill:url(#SVGID_4_);}
</style>
<linearGradient id="SVGID_1_" gradientUnits="userSpaceOnUse" x1="114.5" y1="245.5" x2="938.7676" y2="245.5">
	<stop  offset="0" style="stop-color:#ffffff"/>
	<stop  offset="0.3333" style="stop-color:#ffffff"/>
	<stop  offset="0.6666" style="stop-color:#ffffff"/>
	<stop  offset="1" style="stop-color:#ffffff"/>
</linearGradient>
<path class="st0" d="M636.5,178c37.3,0,67.5,30.2,67.5,67.5S673.8,313,636.5,313c-37.3,0-67.5-30.2-67.5-67.5S599.2,178,636.5,178z"
	/>
<linearGradient id="SVGID_2_" gradientUnits="userSpaceOnUse" x1="114.5" y1="537.2195" x2="938.7676" y2="537.2195">
	<stop  offset="0" style="stop-color:#ffffff"/>
	<stop  offset="0.3333" style="stop-color:#ffffff"/>
	<stop  offset="0.6666" style="stop-color:#ffffff"/>
	<stop  offset="1" style="stop-color:#ffffff"/>
</linearGradient>
<path class="st1" d="M489,779h69V566l-75-75l82-82l99,99c0,0,24.6,23.4,48,0c23.4-23.4,0-47,0-47L563,312c0,0-41.7-37.3-79,0
	c-37.3,37.3-107,107-107,107s-41.5,43.5,0,85c41.5,41.5,108,108,108,108v167H489z"/>
<linearGradient id="SVGID_3_" gradientUnits="userSpaceOnUse" x1="114.5" y1="695.9999" x2="938.7676" y2="695.9999">
	<stop  offset="0" style="stop-color:#ffffff"/>
	<stop  offset="0.3333" style="stop-color:#ffffff"/>
	<stop  offset="0.6666" style="stop-color:#ffffff"/>
	<stop  offset="1" style="stop-color:#ffffff"/>
</linearGradient>
<path class="st2" d="M263,546h-90c0,0-60-0.6-60,60c0,60.6,0,180,0,180s-0.3,60,60,60s90,0,90,0s150,0,150-150S263,546,263,546z
	 M263,786c0,0-17.8,0-54,0c-36.2,0-36-36-36-36s0-71.6,0-108s36-36,36-36h54c0,0,90,0,90,90S263,786,263,786z"/>
<linearGradient id="SVGID_4_" gradientUnits="userSpaceOnUse" x1="114.5" y1="695.9999" x2="938.7676" y2="695.9999">
	<stop  offset="0" style="stop-color:#ffffff"/>
	<stop  offset="0.3333" style="stop-color:#ffffff"/>
	<stop  offset="0.6666" style="stop-color:#ffffff"/>
	<stop  offset="1" style="stop-color:#ffffff"/>
</linearGradient>
<path class="st3" d="M787,546h-90c0,0-60-0.6-60,60c0,60.6,0,180,0,180s-0.3,60,60,60c60.3,0,90,0,90,0s150,0,150-150
	S787,546,787,546z M787,786c0,0-17.8,0-54,0c-36.2,0-36-36-36-36s0-71.6,0-108s36-36,36-36h54c0,0,90,0,90,90S787,786,787,786z"/>
</svg>
